<?xml version="1.0" encoding="utf-8"?>
<!-- Generator: Adobe Illustrator 23.0.4, SVG Export Plug-In . SVG Version: 6.00 Build 0)  -->
<svg version="1.1" id="Layer_1" xmlns="http://www.w3.org/2000/svg" xmlns:xlink="http://www.w3.org/1999/xlink" x="0px" y="0px"
	 viewBox="0 0 432.1 445.4" style="enable-background:new 0 0 432.1 445.4;" xml:space="preserve">
<style type="text/css">
	.st0{fill:#336791;}
	.st1{fill:#FFFFFF;}
</style>
<g id="orginal">
</g>
<g>
	<path d="M431.3,266.8c-2.6-7.9-9.4-13.3-18.2-14.7c-4.1-0.6-8.9-0.4-14.5,0.8c-9.8,2-17.1,2.8-22.4,2.9
		c20-33.8,36.3-72.4,45.7-108.6c15.2-58.7,7.1-85.4-2.4-97.5c-25-32-61.6-49.2-105.7-49.7c-23.5-0.3-44.2,4.4-54.9,7.7
		c-10-1.8-20.8-2.8-32.1-2.9c-21.2-0.3-39.9,4.3-55.9,13.8c-8.9-3-23.1-7.2-39.5-9.9C92.7,2.3,61.6,7.2,38.8,23.3
		C11.2,42.8-1.6,76.7,0.8,123.9c0.8,15,9.1,60.7,22.4,104c7.6,24.9,15.7,45.6,24.1,61.4c11.9,22.5,24.6,35.8,38.9,40.5
		c8,2.7,22.5,4.5,37.8-8.2c1.9,2.3,4.5,4.7,8,6.8c4.4,2.7,9.7,5,15,6.3c19.2,4.8,37.2,3.6,52.5-3.1c0.1,2.7,0.2,5.3,0.2,7.6
		c0.1,3.6,0.2,7.2,0.3,10.6c0.9,22.6,2.4,40.2,7,52.5c0.3,0.7,0.6,1.7,0.9,2.8c2.3,7,6.1,18.6,15.8,27.8c10,9.5,22.1,12.4,33.2,12.4
		c5.6,0,10.9-0.7,15.5-1.7c16.6-3.6,35.5-9,49.1-28.4c12.9-18.4,19.2-46,20.3-89.6c0.1-1.2,0.3-2.4,0.4-3.5c0.1-0.8,0.2-1.5,0.3-2.3
		l3,0.3l0.8,0.1c16.9,0.8,37.6-2.8,50.3-8.7C406.7,306.7,438.9,289.7,431.3,266.8z M391.1,299.4C381,304.1,365,307,351,307
		c-6.7,0-12.9-0.7-17.6-2.2c-2.3,20.9-7.1,59.9-9.9,76.2c-5.3,30.5-18.9,44.4-50.2,51.1c-5.3,1.1-10.2,1.7-14.6,1.7
		c-30,0-39.5-23.8-43.4-33.5c-4.7-11.9-6.4-50.9-6.1-90.4c-10.8,9.8-24.4,14.9-39.8,14.9c-6.3,0-13-0.9-19.9-2.6
		c-2-0.5-19.3-5.2-19.1-16.2c0.2-10.2,14.7-13.1,20.2-14.3c19.2-3.9,20.4-5.5,26.4-13.1c1.2-1.5,2.6-3.3,4.3-5.4
		c0-0.2,0-0.4-0.1-0.7c-8.6-0.2-17-2.5-24.7-6.6c-5.2,5.5-19.2,20.7-34.3,38.8c-9.1,10.9-17.8,14.1-24.9,14.1
		c-2.9,0-5.5-0.5-7.8-1.3c-19.5-6.5-38-38.1-55-93.8c-12.9-42.4-21.1-86.6-21.8-101c-2.1-42.7,8.9-73,32.8-89.9
		C65.7,18.6,93.7,14.3,129,20c20.4,3.3,37.1,9,43.6,11.4c14.9-10.1,32.8-15.1,53.6-14.8c11.3,0.2,21.7,1.6,31.3,4
		c4.5-2,27.9-9.1,55.6-8.8c40.3,0.4,73.5,16,96.2,44.9c5.6,7.2,8.3,18.9,8.1,35c-0.2,14.6-3,32.5-8,51.7
		c-10.5,40.7-30,84.3-53.7,120.3c3.6,2.6,14.5,7,44.9,0.7c10.3-2.1,16.4-0.3,18.3,5.5C422.8,281.3,402.4,294.2,391.1,299.4z"/>
	<path class="st0" d="M172.2,117.9c21.1-2.2,35.1,7.2,39.2,26.5c11.1,51.5,0.9,74.4-6.6,91c-1.4,3.1-2.7,6-3.7,8.8l-0.9,2.5
		c-2.2,5.9-4.3,11.4-5.4,16.3c5.5-1.4,10.1,0.5,12.6,1.5c6.3,2.6,11.6,8.9,13.7,16.4c0.4,1.2,0.6,2.5,0.8,3.7c0.2,0.6,0.3,1.3,0.3,2
		c-1.4,51.8,0.6,98.6,4.7,109c6.4,16.1,16.2,30.2,43.8,24.3c26.6-5.7,36.1-15.3,40.5-41c3.4-19.5,10-74.6,10.9-86.4
		c-1.2-23.5,11.5-28.2,18.5-30.2c-0.9-1.3-2.1-2.8-3.3-4.3c-4-5-9.5-11.8-13.7-22.1c-0.6-1.6-2.7-5.3-5.1-9.5
		c-13-23.3-40-71.7-22.5-96.6c8-11.5,23.8-16.1,47.1-13.7C340,107,332.3,89.9,318,73c-16.6-19.6-46-43.2-92-43.9
		c-23.3-0.4-42.4,6.8-56.8,21.2c-22.8,23-28.9,59.3-30.5,78.8c1.1-0.6,2.2-1.2,3.4-1.8C148,124.4,159.5,119.2,172.2,117.9z"/>
	<path class="st0" d="M342.1,190.5c-0.9-7.7-1.9-15.7-1.6-23.4c0.3-7.9,1.3-14.4,2.2-20.7c0.9-5.8,1.7-11.4,1.9-17.6
		c-24.6-3.1-34.4,2.6-38.3,8.1c-13,18.5,12.4,64,23.2,83.4c2.8,5,4.8,8.6,5.7,10.8c1,2.5,2.1,4.7,3.3,6.8
		C345.9,222.2,344,206.1,342.1,190.5z M330.3,142.9c-1.2,1.3-3.7,3.4-7.2,3.9c-0.4,0.1-0.9,0.1-1.3,0.1c-5.2,0-9.5-4.1-9.9-6.5
		c-0.4-3.1,4.6-5.5,9.9-6.2c5.2-0.7,10.7,0.2,11.2,3.3l0,0C333.2,138.8,332.1,140.9,330.3,142.9z"/>
	<path class="st0" d="M334.5,291.8c1.5,1.2,8,3.2,20.6,2.7c11.5-0.5,23.5-3,30.7-6.4c8.4-3.9,14.3-8.2,17.7-11.5
		c-0.1,0-0.2,0-0.3,0.1c-25.6,5.3-43.7,4.6-53.9-2.2c-0.6-0.4-1.2-0.8-1.7-1.3c-0.9,0.3-1.7,0.5-2.6,0.8
		C339.3,275.7,333.8,277.2,334.5,291.8z"/>
	<path class="st0" d="M52.8,42.9c-20.2,14.3-29.4,40.9-27.5,79.1c0.6,12.1,8.2,55.1,21.3,98c15.1,49.5,32.2,80.7,47,85.6
		c2.3,0.8,9.2,3.1,19.1-8.9c14.1-17,27.4-31.4,33.4-37.9c-1.5-1.3-3-2.7-4.4-4.2c-13.7-14.3-19.9-34.1-17.1-54.3
		c3-21.8,1.9-41,1.3-51.3c-0.2-2.8-0.3-4.9-0.3-6.3c-0.1-3.8-0.9-65.1,34.6-101.1c0.3-0.3,0.6-0.6,0.9-0.9
		C139.6,33.6,85.7,19.7,52.8,42.9z"/>
	<path class="st0" d="M153.1,303.9c-4.7,1-7.3,1.9-8.9,2.6c1.8,1.2,4.9,2.7,8.3,3.6c16.6,4.2,39.8,4.4,55.7-17.8
		c1.9-2.6,1.3-6,0.8-7.8c-1.1-3.8-3.8-7.2-6.5-8.4c-3.4-1.4-5.2-2.2-9.3,2.4c0,0,0,0,0,0c-2.7,3.1-4.7,5.6-6.5,7.8
		C179.2,295.9,175.7,299.2,153.1,303.9z"/>
	<path class="st0" d="M399.5,64.5c-20.2-25.8-48.8-39.3-84.8-40.1c-14.2-0.3-27,1.5-36.3,3.4c21.6,9.5,37.5,23.7,48.3,36.3
		c19.9,23.1,29.6,48.7,30.4,57.2c0.1,1.3,0,2.4-0.2,3.3c0.3,8.9-0.8,16.4-1.9,23.7c-0.9,5.9-1.9,12-2.1,19.2
		c-0.2,6.7,0.6,13.9,1.6,21.5c2.2,18.5,4.7,39.4-8,60.4c0.2,0.3,0.4,0.5,0.6,0.8c0.5,0.6,1,1.3,1.5,1.9
		C398,174.4,415,84.3,399.5,64.5z"/>
	<path class="st0" d="M150.8,246c8.7,9.1,20.1,14.1,31.8,14.1c1.3-5.5,3.5-11.4,5.9-17.6l0.9-2.5c1.2-3.2,2.6-6.3,4.1-9.6
		c7.2-15.9,16.1-35.7,5.8-83.3c-2-9.2-6.8-14.5-14.6-16.3c-17.2-3.9-41.3,9-46.5,13.6c0,1,0.1,2.4,0.2,3.9
		c0.6,10.8,1.8,30.8-1.4,53.8C134.7,218.4,139.8,234.4,150.8,246z M170.5,141.4c0.1-0.7,0.5-1.7,1.6-2.6c2.1-1.6,6.2-2.2,10.7-1.5
		c5.6,0.8,11.3,3.4,10.7,7.4c-0.4,3.2-5.4,7.4-10.9,7.4c-0.5,0-0.9,0-1.4-0.1c-3.3-0.5-6.6-2.5-8.9-5.5
		C171.5,145.4,170.2,143.3,170.5,141.4z"/>
	<path class="st1" d="M328.5,302.8c-5.2-3.1-6.2-7.4-6.4-9.7c0-0.2,0-0.3,0-0.5c-0.9,11.8-7.5,66.9-10.9,86.4
		c-4.4,25.7-13.9,35.3-40.5,41c-27.6,5.9-37.4-8.2-43.8-24.3c-4.2-10.4-6.2-57.3-4.7-109c0-0.7-0.1-1.4-0.3-2
		c0.7,5.5-0.4,10.6-3.4,14.8c-2.8,3.9-5.9,7.4-9.2,10.4c-0.3,39.6,1.3,78.5,6.1,90.4c3.9,9.7,13.4,33.5,43.4,33.5
		c4.4,0,9.3-0.5,14.6-1.7c31.3-6.7,44.9-20.6,50.2-51.1c2.8-16.3,7.6-55.3,9.9-76.2C331.5,304.3,329.9,303.6,328.5,302.8z"/>
	<path class="st1" d="M146.2,258.8c-6.1,6.5-19.3,21-33.4,37.9c-10,12-16.9,9.7-19.1,8.9c-14.8-4.9-31.9-36.1-47-85.6
		c-13.1-42.8-20.7-85.9-21.3-98c-1.9-38.2,7.3-64.8,27.5-79.1c32.8-23.3,86.8-9.3,108.5-2.3c3.5-3.5,7.3-6.6,11.3-9.3
		C166.1,29,149.4,23.2,129,20c-35.3-5.7-63.4-1.4-83.4,12.8c-23.9,16.9-34.9,47.2-32.8,89.9c0.7,14.4,8.9,58.6,21.8,101
		c17,55.8,35.5,87.3,55,93.8c2.3,0.8,4.9,1.3,7.8,1.3c7.1,0,15.8-3.2,24.9-14.1c15-18.1,29.1-33.3,34.3-38.8
		C153,263.9,149.5,261.5,146.2,258.8z"/>
	<path class="st1" d="M278.4,27.8c9.3-1.9,22-3.7,36.3-3.4c36.1,0.8,64.6,14.3,84.8,40.1c15.5,19.8-1.6,109.9-51,187.7
		c2.7,3.4,4.8,6.5,5.7,10.1c0.1,0.2,0.5,0.8,1.6,1.5c23.7-36.1,43.1-79.7,53.7-120.3c5-19.3,7.7-37.2,8-51.7c0.2-16-2.5-27.8-8.1-35
		c-22.7-29-55.9-44.5-96.2-44.9c-27.7-0.3-51.1,6.8-55.6,8.8C265,22.5,272,24.9,278.4,27.8z"/>
	<path class="st1" d="M400.8,264.5c-30.5,6.3-41.4,1.9-44.9-0.7c-1-0.7-1.4-1.4-1.6-1.5c-0.9-3.6-3.1-6.7-5.7-10.1
		c-0.5-0.6-1-1.2-1.5-1.9c-0.2-0.3-0.4-0.5-0.6-0.8c-0.6,0.9-1.1,1.8-1.7,2.8c-1.2,1.8-3.2,2.8-5.2,2.8c-1.2,0-2.4-0.3-3.5-1.1
		c-2.9-1.9-3.6-5.8-1.7-8.6c1.6-2.4,3-4.9,4.1-7.3c-1.2-2.1-2.3-4.3-3.3-6.8c-0.9-2.2-2.9-5.8-5.7-10.8
		c-10.8-19.4-36.2-64.9-23.2-83.4c3.9-5.5,13.7-11.2,38.3-8.1c0-1.7,0-3.3-0.1-5.1c-0.2-3.4,2.5-6.4,5.9-6.6
		c3.4-0.2,6.4,2.5,6.6,5.9c0,0.5,0,1,0,1.5c0.2-0.9,0.3-2,0.2-3.3c-0.8-8.5-10.5-34.1-30.4-57.2c-10.9-12.6-26.7-26.8-48.3-36.3
		c-6.4-2.8-13.4-5.3-20.9-7.1c-9.6-2.4-20-3.8-31.3-4c-20.8-0.3-38.7,4.6-53.6,14.8c-4,2.7-7.8,5.8-11.3,9.3
		c-0.3,0.3-0.6,0.6-0.9,0.9c-35.6,35.9-34.7,97.3-34.6,101.1c0,0,0-0.1,0-0.1c0-1.8,0.1-6.2,13-13.4c1.6-19.5,7.7-55.8,30.5-78.8
		c14.4-14.5,33.5-21.6,56.8-21.2c45.9,0.8,75.3,24.3,92,43.9c14.3,16.9,22.1,34,25.2,43.1c-23.3-2.4-39.1,2.2-47.1,13.7
		c-17.5,24.9,9.5,73.4,22.5,96.6c2.4,4.3,4.4,8,5.1,9.5c4.2,10.2,9.7,17.1,13.7,22.1c1.2,1.5,2.4,3,3.3,4.3c-7,2-19.7,6.7-18.5,30.2
		c0,0.2,0,0.3,0,0.5c0.1,2.3,1.1,6.6,6.4,9.7c1.4,0.8,3,1.5,4.9,2.1c4.8,1.5,11,2.2,17.6,2.2c13.9,0,30-3,40.1-7.6
		c11.3-5.3,31.7-18.2,28-29.4C417.2,264.3,411,262.4,400.8,264.5z M345,274.1c0.9-0.3,1.8-0.5,2.6-0.8c0.5,0.4,1.1,0.9,1.7,1.3
		c10.2,6.7,28.3,7.4,53.9,2.2c0.1,0,0.2,0,0.3-0.1c-3.5,3.2-9.4,7.6-17.7,11.5c-7.2,3.3-19.3,5.9-30.7,6.4
		c-12.7,0.6-19.1-1.4-20.6-2.7C333.8,277.2,339.3,275.7,345,274.1z"/>
	<path class="st1" d="M218.4,299.5c3-4.2,4.2-9.4,3.4-14.8c-0.2-1.2-0.4-2.4-0.8-3.7c-2.2-7.5-7.4-13.8-13.7-16.4
		c-2.5-1-7.1-2.9-12.6-1.5c-0.9,3.8-1.3,7.1-0.9,10.1c0.5,3.4-1.8,6.6-5.2,7.1c-0.3,0-0.6,0.1-1,0.1c-3,0-5.7-2.2-6.2-5.3
		c-0.1-0.6-0.2-1.2-0.2-1.8c-1.7,2-3.1,3.8-4.3,5.4c-6,7.6-7.2,9.1-26.4,13.1c-5.5,1.1-19.9,4.1-20.2,14.3
		c-0.2,11.1,17.1,15.8,19.1,16.2c6.9,1.7,13.5,2.6,19.9,2.6c15.4,0,28.9-5.1,39.8-14.9C212.5,306.9,215.6,303.4,218.4,299.5z
		 M193.2,278.5C193.2,278.5,193.2,278.5,193.2,278.5c4.1-4.6,5.9-3.8,9.3-2.4c2.7,1.1,5.4,4.6,6.5,8.4c0.5,1.8,1.1,5.2-0.8,7.8
		c-15.9,22.3-39.1,22-55.7,17.8c-3.4-0.9-6.5-2.3-8.3-3.6c1.5-0.7,4.2-1.7,8.9-2.6c22.6-4.6,26-7.9,33.7-17.6
		C188.5,284.1,190.5,281.5,193.2,278.5z"/>
	<path class="st1" d="M187.7,280.3c0.3,0,0.6,0,1-0.1c3.4-0.5,5.7-3.7,5.2-7.1c-0.4-2.9-0.1-6.3,0.9-10.1c1.2-4.9,3.2-10.3,5.4-16.3
		l0.9-2.5c1-2.8,2.4-5.7,3.7-8.8c7.5-16.7,17.8-39.5,6.6-91c-4.2-19.3-18.1-28.7-39.2-26.5c-12.7,1.3-24.3,6.4-30,9.4
		c-1.2,0.6-2.4,1.2-3.4,1.8c-13,7.2-13,11.7-13,13.4c0,0,0,0.1,0,0.1c0,1.4,0.1,3.5,0.3,6.3c0.6,10.3,1.8,29.5-1.3,51.3
		c-2.8,20.2,3.4,40,17.1,54.3c1.4,1.5,2.9,2.9,4.4,4.2c3.3,2.8,6.7,5.2,10.4,7.1c7.7,4.1,16.1,6.4,24.7,6.6c0,0.2,0,0.4,0.1,0.7
		c0.1,0.6,0.1,1.2,0.2,1.8C182,278.1,184.7,280.3,187.7,280.3z M137,202c3.2-23,2-43,1.4-53.8c-0.1-1.5-0.2-2.8-0.2-3.9
		c5.2-4.6,29.3-17.5,46.5-13.6c7.8,1.8,12.6,7.1,14.6,16.3c10.3,47.5,1.4,67.3-5.8,83.3c-1.5,3.3-2.9,6.4-4.1,9.6l-0.9,2.5
		c-2.3,6.3-4.5,12.1-5.9,17.6c-11.7,0-23.1-5-31.8-14.1C139.8,234.4,134.7,218.4,137,202z"/>
	<path class="st1" d="M181.8,147.8c3.9,0.5,7.1-2.5,7.6-3.7c-0.5-0.7-2.9-2.2-7.2-2.8c-4.2-0.6-7,0.2-7.6,0.7
		C174.9,143.5,177.9,147.3,181.8,147.8z"/>
	<path class="st1" d="M181.2,152c0.5,0.1,1,0.1,1.4,0.1c5.5,0,10.5-4.3,10.9-7.4c0.5-4-5.2-6.6-10.7-7.4c-4.5-0.6-8.6,0-10.7,1.5
		c-1.2,0.9-1.5,1.9-1.6,2.6c-0.3,1.9,1,3.9,1.9,5C174.6,149.4,177.9,151.5,181.2,152z M182.2,141.4c4.3,0.6,6.7,2.1,7.2,2.8
		c-0.5,1.1-3.7,4.2-7.6,3.7c-3.9-0.5-6.9-4.4-7.2-5.8C175.3,141.6,178,140.8,182.2,141.4z"/>
	<path class="st1" d="M325.2,136c-0.9,0-2,0.1-3.1,0.2c-5.5,0.8-8.2,2.9-8.1,3.8c0.2,1.4,4.1,5.3,8.8,4.7c2.8-0.4,4.9-2.2,6-3.3
		c1.6-1.7,2.2-3.2,2.1-3.7C330.8,137,328.8,136,325.2,136z"/>
	<path class="st1" d="M333,137.4c-0.4-3.1-5.9-4-11.2-3.3c-5.2,0.7-10.3,3.1-9.9,6.2c0.3,2.4,4.7,6.5,9.9,6.5c0.4,0,0.9,0,1.3-0.1
		c3.4-0.5,6-2.7,7.2-3.9C332.1,140.9,333.2,138.8,333,137.4L333,137.4z M322.8,144.7c-4.7,0.7-8.6-3.3-8.8-4.7
		c-0.1-0.9,2.6-3.1,8.1-3.8c1.1-0.2,2.2-0.2,3.1-0.2c3.6,0,5.6,1,5.7,1.7c0.1,0.5-0.6,2.1-2.1,3.7
		C327.8,142.5,325.6,144.3,322.8,144.7z"/>
	<path class="st1" d="M354.5,189c-0.9-7.6-1.8-14.8-1.6-21.5c0.2-7.1,1.2-13.3,2.1-19.2c1.1-7.3,2.3-14.8,1.9-23.7c0-0.5,0-1,0-1.5
		c-0.2-3.4-3.1-6.1-6.6-5.9c-3.4,0.2-6.1,3.1-5.9,6.6c0.1,1.7,0.1,3.4,0.1,5.1c-0.1,6.2-1,11.8-1.9,17.6c-1,6.3-2,12.8-2.2,20.7
		c-0.2,7.7,0.7,15.7,1.6,23.4c1.9,15.6,3.8,31.6-3.6,47.5c-1.1,2.4-2.5,4.9-4.1,7.3c-1.9,2.9-1.1,6.7,1.7,8.6
		c1.1,0.7,2.3,1.1,3.5,1.1c2,0,4-1,5.2-2.8c0.6-0.9,1.2-1.8,1.7-2.8C359.2,228.4,356.7,207.5,354.5,189z"/>
</g>
</svg>
