<?xml version="1.0" encoding="utf-8"?>
<!-- Generator: Adobe Illustrator 23.0.4, SVG Export Plug-In . SVG Version: 6.00 Build 0)  -->
<svg version="1.1" id="Layer_1" xmlns="http://www.w3.org/2000/svg" xmlns:xlink="http://www.w3.org/1999/xlink" x="0px" y="0px"
	 viewBox="0 0 226.8 139.2" style="enable-background:new 0 0 226.8 139.2;" xml:space="preserve">
<style type="text/css">
	.st0{fill-rule:evenodd;clip-rule:evenodd;fill:#CC0000;}
</style>
<g transform="translate(8 8)">
	<path class="st0" d="M-1,131.2h79c0,0-15.1-68.9,34.9-96.8c10.9-5.3,45.6-25.1,102.4,16.9c1.8-1.5,3.5-2.7,3.5-2.7
		s-52-51.9-109.9-46.1C79.8,5.1,44,31.6,23,66.6S-1,131.2-1,131.2z"/>
	<path class="st0" d="M-1,131.2h79c0,0-15.1-68.9,34.9-96.8c10.9-5.3,45.6-25.1,102.4,16.9c1.8-1.5,3.5-2.7,3.5-2.7
		s-52-51.9-109.9-46.1C79.8,5.1,44,31.6,23,66.6S-1,131.2-1,131.2z"/>
	<path class="st0" d="M-1,131.2h79c0,0-15.1-68.9,34.9-96.8c10.9-5.3,45.6-25.1,102.4,16.9c1.8-1.5,3.5-2.7,3.5-2.7
		s-52-51.9-109.9-46.1c-29.2,2.6-65,29.1-86,64.1S-1,131.2-1,131.2z M163.6,8.1l0.4-6.7c-0.9-0.5-3.4-1.7-9.7-3.5l-0.4,6.6
		C157.2,5.6,160.4,6.8,163.6,8.1z"/>
	<path class="st0" d="M154.1,29.3l-0.4,6.3c3.3,0.1,6.6,0.5,9.9,1.2l0.4-6.2C160.6,29.9,157.3,29.5,154.1,29.3z M117.1-1.9h1l-2-6.1
		c-3.1,0-6.3,0.2-9.6,0.6l1.9,5.9C111.3-1.8,114.2-1.9,117.1-1.9z M121.9,34.9l2.3,6.9c2.9-1.4,5.8-2.6,8.7-3.5l-2.2-6.6
		C127.3,32.7,124.4,33.8,121.9,34.9z M76.5,8.6L72,1.7C69.5,3,66.9,4.4,64.2,6l4.6,7C71.4,11.4,73.9,9.9,76.5,8.6z M97,53.6l4.8,7.2
		c1.7-2.5,3.7-4.8,5.9-7.1l-4.5-6.8C100.9,49,98.8,51.3,97,53.6z M82.5,85.8l8.1,6.4c0.4-3.9,1.1-7.8,2.1-11.7l-7.2-5.7
		C84.2,78.5,83.3,82.2,82.5,85.8z M38.7,38.3l-7.1-6.2c-2.6,2.5-5.1,5-7.4,7.5l7.7,6.6C34,43.5,36.3,40.8,38.7,38.3z M8.5,83
		L-3,78.8c-1.9,4.3-4,9.3-5,12L3.5,95C4.8,91.6,6.9,86.7,8.5,83z M81,111.2c0.2,5.3,0.7,9.6,1.2,12.6l12,4.3
		c-0.9-3.9-1.8-8.3-2.4-13L81,111.2z"/>
</g>
</svg>
